<?xml version="1.0" encoding="UTF-8"?><svg id="_이어_2" xmlns="http://www.w3.org/2000/svg" viewBox="0 0 223.3 223.3"><defs><style>.cls-1{fill:#fff;}.cls-2{fill:#231815;}</style></defs><g id="_이어_1-2"><g><circle class="cls-1" cx="111.65" cy="111.65" r="111.65"/><g><path class="cls-2" d="M129.71,42.8c-14.04,0-25.92,5.95-25.92,13.02s11.88,13.02,25.92,13.02,25.94-5.97,25.94-13.02-11.88-13.02-25.94-13.02Zm10.79,18.73c-.31,.9-1.23,1.57-2.77,1.99-.05,.02-.11,.04-.17,.05-.06,.02-.12,.03-.18,.03-.05,.02-.1,.03-.16,.05-.05,.02-.11,.03-.17,.03l.84,1.55-5.46,.17-.87-1.6c-.19,0-.38-.03-.55-.05-.18-.03-.35-.06-.52-.1-.41-.07-.88-.18-1.41-.33-.54-.15-1.09-.34-1.66-.56-.59-.2-1.16-.44-1.73-.71-.57-.27-1.08-.56-1.53-.86l1.67-2.99c1.74,.71,3.19,1.18,4.33,1.41,1.14,.23,2.14,.32,3.01,.28,.3,0,.53-.09,.69-.24,.16-.15,.23-.33,.22-.53-.03-.21-.14-.41-.34-.62-.2-.21-.5-.38-.89-.51-.49-.14-.96-.28-1.4-.41-.44-.13-.91-.27-1.4-.41-.48-.13-1.01-.28-1.59-.45-.58-.17-1.24-.39-1.98-.66-1.1-.36-2.07-.8-2.9-1.31-.83-.51-1.52-1.04-2.07-1.6-.55-.56-.96-1.12-1.22-1.7-.26-.57-.38-1.11-.35-1.62,.05-.65,.31-1.19,.76-1.6,.45-.41,1.08-.73,1.86-.94l-.86-1.58,5.46-.17,.79,1.46c1.13,.16,2.25,.42,3.35,.79,1.1,.37,2.15,.85,3.15,1.45l-1.6,3.01c-.86-.4-1.84-.74-2.95-1.02-1.11-.28-1.99-.39-2.64-.34-.53,.05-.8,.2-.81,.47-.01,.26,.14,.51,.45,.74,.22,.18,.66,.42,1.29,.7,.64,.28,1.72,.64,3.25,1.07,2.1,.61,3.82,1.29,5.18,2.05,1.35,.76,2.32,1.53,2.9,2.29,.96,1.31,1.28,2.41,.97,3.31Z"/><path class="cls-2" d="M119.88,147.63c-.11-4.63-1-9.05-2.52-13.19-1.03-2.79-2.34-5.45-3.92-7.92-3.21-5.02-7.46-9.29-12.46-12.52-2.05-1.32-4.21-2.49-6.48-3.43-4.87-2.03-10.21-3.16-15.81-3.16-22.75,0-41.25,18.51-41.25,41.25s18.51,41.25,41.25,41.25c14.24,0,26.82-7.25,34.23-18.26,1.22-1.81,2.27-3.75,3.2-5.75,1.7-3.68,2.87-7.64,3.42-11.8,.24-1.79,.4-3.59,.4-5.44,0-.35-.04-.68-.05-1.03Zm-8.56,16.43c-.93,1.96-2.02,3.82-3.27,5.57-6.56,9.16-17.27,15.16-29.37,15.16-19.93,0-36.14-16.21-36.14-36.14s16.21-36.14,36.14-36.14c5.68,0,11.03,1.35,15.81,3.69,7.08,3.46,12.85,9.15,16.41,16.17,2.14,4.21,3.46,8.89,3.79,13.84,.05,.81,.12,1.61,.12,2.43,0,1.43-.11,2.84-.27,4.23-.46,3.96-1.58,7.71-3.23,11.18Z"/><path class="cls-2" d="M105.09,129.45c-2.81-3.85-6.41-7.08-10.6-9.4-4.69-2.6-10.07-4.09-15.81-4.09-18.06,0-32.7,14.64-32.7,32.69s14.64,32.7,32.7,32.7c10.82,0,20.39-5.28,26.34-13.38,1.27-1.73,2.37-3.59,3.29-5.56,1.54-3.3,2.56-6.9,2.91-10.69,.09-1.01,.15-2.03,.15-3.07,0-1.33-.1-2.63-.26-3.92-.68-5.68-2.82-10.89-6.02-15.29Zm-12.25,34.52c-1.49,2.14-3.88,3.67-7.17,4.59-.11,.04-.24,.08-.37,.11-.13,.04-.26,.06-.37,.06-.11,.04-.23,.08-.34,.11-.11,.04-.23,.06-.34,.06v3.78h-10.32v-3.9c-.34-.04-.67-.09-.97-.17-.31-.07-.59-.17-.86-.29-.69-.19-1.45-.49-2.3-.89-.84-.4-1.68-.89-2.52-1.46-.88-.53-1.71-1.15-2.5-1.84-.78-.69-1.44-1.41-1.98-2.18l6.14-7.05c2.52,1.83,4.73,3.07,6.62,3.7,1.89,.63,3.66,.93,5.3,.89,.57,0,1.08-.17,1.52-.51s.75-.76,.95-1.26c.15-.5,.15-1,0-1.52-.15-.51-.54-.95-1.15-1.29-.77-.38-1.49-.75-2.18-1.09-.69-.34-1.41-.71-2.18-1.09-.77-.34-1.6-.74-2.5-1.2-.9-.46-1.9-1.03-3.01-1.72-1.68-.95-3.04-2.07-4.07-3.35s-1.78-2.61-2.24-3.99c-.46-1.38-.64-2.76-.54-4.16,.09-1.39,.43-2.7,1-3.93,.76-1.57,1.78-2.83,3.04-3.79,1.26-.95,2.73-1.66,4.42-2.12v-3.84h10.32v3.56c1.95,.46,3.76,1.17,5.42,2.15,1.66,.97,3.12,2.21,4.39,3.7l-6.02,7.11c-1.19-1.03-2.67-1.92-4.45-2.67-1.78-.74-3.3-1.08-4.56-1-1.03,.08-1.69,.43-1.98,1.06-.29,.63-.26,1.23,.08,1.81,.23,.46,.79,1.05,1.69,1.78,.9,.73,2.55,1.66,4.96,2.81,3.29,1.61,5.8,3.37,7.54,5.3,1.74,1.93,2.76,3.83,3.07,5.71,.46,3.21-.06,5.89-1.55,8.03Z"/><path class="cls-2" d="M129.71,33.39c-19.74,0-35.22,9.85-35.22,22.43v52.03c.33,.13,.66,.22,.98,.35,1.83,.76,3.64,1.73,5.44,2.79v-3.85c6.55,5.96,17.14,9.49,28.8,9.49s22.3-3.53,28.82-9.49v6.29c0,2.58-1.13,5.06-3.38,7.39-5.17,5.32-14.91,8.62-25.45,8.62-4.47,0-8.78-.62-12.66-1.72,1.02,1.87,1.96,3.8,2.71,5.83,.18,.49,.31,.98,.48,1.47,3.03,.53,6.21,.81,9.48,.81,11.71,0,22.3-3.53,28.82-9.49v6.29c0,2.58-1.13,5.09-3.38,7.37v.03c-2.58,2.66-6.32,4.81-10.72,6.29-4.4,1.51-9.46,2.33-14.73,2.33-2.5,0-4.9-.26-7.25-.62,.01,.21,.03,.41,.03,.62,0,1.77-.13,3.6-.42,5.78v.03c2.48,.36,5.01,.61,7.64,.61,11.69,0,22.28-3.56,28.82-9.49v6.27c0,8.7-13.2,16.01-28.82,16.01-3.92,0-7.67-.48-11.11-1.31-.06,.14-.11,.28-.17,.41-.93,2.02-1.92,3.78-2.97,5.42,4.35,1.2,9.14,1.89,14.25,1.89,19.77,0,35.24-9.85,35.24-22.43V55.82c0-12.58-15.47-22.43-35.24-22.43Zm28.82,60.84c0,2.58-1.13,5.06-3.38,7.37-5.17,5.35-14.91,8.64-25.45,8.64s-20.26-3.3-25.42-8.64c-2.25-2.3-3.38-4.78-3.38-7.37v-6.29c6.55,5.96,17.14,9.49,28.8,9.49s22.3-3.56,28.82-9.49v6.29Zm0-19.21c0,2.58-1.13,5.06-3.38,7.37-5.17,5.32-14.91,8.64-25.45,8.64s-20.26-3.32-25.42-8.64c-2.25-2.3-3.38-4.78-3.38-7.37v-6.19c6.32,5.7,16.75,9.39,28.8,9.39s22.51-3.68,28.82-9.39v6.19Zm-28.82-3.2c-15.6,0-28.8-7.34-28.8-16.01s13.2-16.01,28.8-16.01,28.82,7.31,28.82,16.01-13.2,16.01-28.82,16.01Z"/></g></g></g></svg>