<?xml version="1.0" encoding="UTF-8"?><svg id="_이어_2" xmlns="http://www.w3.org/2000/svg" viewBox="0 0 630.41 630.41"><defs><style>.cls-1{opacity:.9;}.cls-2{fill:#ffe812;}</style></defs><g id="Layer_1"><g><circle class="cls-2" cx="315.2" cy="315.2" r="315.2"/><g><path class="cls-1" d="M315.2,126.31c-112.06,0-202.89,71.62-202.89,159.97,0,57.12,37.98,107.24,95.1,135.54-3.11,10.72-19.97,68.95-20.64,73.53,0,0-.4,3.44,1.82,4.75,2.23,1.31,4.84,.29,4.84,.29,6.38-.89,74.02-48.4,85.73-56.65,11.7,1.66,23.74,2.52,36.04,2.52,112.05,0,202.89-71.62,202.89-159.97s-90.84-159.97-202.89-159.97Z"/><path class="cls-2" d="M203.03,342.13c-6.46,0-11.71-5.01-11.71-11.18v-69.54h-18.26c-6.33,0-11.49-5.14-11.49-11.46s5.15-11.46,11.49-11.46h59.94c6.33,0,11.49,5.14,11.49,11.46s-5.15,11.46-11.49,11.46h-18.26v69.54c0,6.17-5.25,11.18-11.71,11.18Z"/><path class="cls-2" d="M305.67,341.98c-4.88,0-8.62-1.98-9.74-5.17l-5.8-15.17h-35.69l-5.8,15.18c-1.12,3.18-4.85,5.16-9.73,5.16-2.58,0-5.15-.56-7.44-1.62-3.23-1.49-6.33-5.58-2.77-16.62l28-73.7c1.97-5.61,7.96-11.38,15.59-11.55,7.65,.17,13.64,5.95,15.61,11.57l27.99,73.66c3.56,11.07,.46,15.16-2.77,16.65-2.29,1.06-4.86,1.61-7.44,1.61h0Zm-21.69-41.08l-11.69-33.21-11.69,33.21h23.38Z"/><path class="cls-2" d="M334.71,340.42c-6.19,0-11.22-4.81-11.22-10.73v-79.5c0-6.46,5.36-11.71,11.95-11.71s11.95,5.25,11.95,11.71v68.77h24.87c6.19,0,11.22,4.81,11.22,10.73s-5.03,10.73-11.22,10.73h-37.55Z"/><path class="cls-2" d="M399.74,341.98c-6.45,0-11.71-5.25-11.71-11.71v-80.08c0-6.46,5.25-11.71,11.71-11.71s11.71,5.25,11.71,11.71v25.16l32.66-32.66c1.68-1.68,3.99-2.61,6.49-2.61,2.92,0,5.86,1.26,8.06,3.46,2.05,2.05,3.27,4.68,3.44,7.42,.17,2.76-.75,5.29-2.58,7.13l-26.67,26.67,28.81,38.17c1.89,2.5,2.68,5.57,2.25,8.67-.43,3.1-2.05,5.84-4.54,7.72-2.05,1.55-4.48,2.36-7.04,2.36-3.71,0-7.12-1.69-9.35-4.65l-27.45-36.37-4.06,4.06v25.54c0,6.46-5.25,11.71-11.71,11.71Z"/></g></g></g></svg>