<?xml version="1.0" encoding="UTF-8"?><svg id="_이어_2" xmlns="http://www.w3.org/2000/svg" viewBox="0 0 630.41 630.41"><defs><style>.cls-1{fill:#00a4f7;}.cls-2{fill:#cad9ec;}.cls-3{fill:#fdfffc;}.cls-4{fill:#b2c2d3;}</style></defs><g id="Layer_1"><g><circle class="cls-1" cx="315.2" cy="315.2" r="315.2"/><g><path class="cls-2" d="M203.19,344.66l36.47,119.6c.63,1.89,3.4,1.57,3.59-.41l9.47-98.42c.04-.46,.26-.9,.61-1.2l174.56-151.47c1.67-1.48-.24-4.1-2.16-2.97l-221.72,132.71c-.75,.44-1.09,1.35-.81,2.17Z"/><polygon class="cls-4" points="243.25 464.25 479.3 195.42 252.79 364.71 243.25 464.25"/><path class="cls-3" d="M112.29,296.72L474.6,152.38c9.15-3.65,18.67,4.37,16.65,14.01l-63.52,302.1c-2.36,11.21-15.57,16.17-24.72,9.28l-150.22-113.06,172.57-152.89-222.64,131.44-89.84-29.01c-8.3-2.68-8.69-14.29-.58-17.52Z"/></g></g></g></svg>