<?xml version="1.0" encoding="UTF-8"?><svg id="_이어_2" xmlns="http://www.w3.org/2000/svg" viewBox="0 0 116.77 120.74"><defs><style>.cls-1{fill:#fff;}</style></defs><g id="_이어_1-2"><path class="cls-1" d="M68.54,24.28h-12.69V7.62c0-3.05-1.73-5.69-4.47-6.96-2.79-1.22-5.94-.76-8.22,1.27L.86,40.12c-.56,.51-.86,1.22-.86,1.93,0,.76,.36,1.42,.91,1.93l41.68,35.59c1.47,1.68,3.5,2.54,5.64,2.54,.91,0,1.83-.15,2.74-.51,2.94-1.12,4.87-3.91,4.87-7.11v-19.75h7.62c16.25,0,30.46,15.38,30.46,33,0,11.83-6.55,23.15-16.4,28.18-.66,.35-1.12,.96-1.27,1.73-.05,.15-.1,.36-.1,.51v.05c0,1.42,1.17,2.54,2.54,2.54,.3,0,.56-.05,.81-.15,21.63-4.92,37.26-25.13,37.26-48.08,0-26.6-21.63-48.23-48.23-48.23Z"/></g></svg>